<svg xmlns="http://www.w3.org/2000/svg" viewBox="0 0 96 96" role="img" aria-labelledby="title desc">
  <title id="title">ITPLACE</title>
  <desc id="desc">혜택 위치를 나타내는 보라색 지도 핀과 반짝임</desc>
  <defs>
    <linearGradient id="background" x1="12" y1="8" x2="84" y2="90" gradientUnits="userSpaceOnUse">
      <stop stop-color="#8B5CF6" />
      <stop offset="0.46" stop-color="#6D28D9" />
      <stop offset="1" stop-color="#24104F" />
    </linearGradient>
    <linearGradient id="pin" x1="34" y1="23" x2="62" y2="72" gradientUnits="userSpaceOnUse">
      <stop stop-color="#FFFFFF" />
      <stop offset="1" stop-color="#DDD6FE" />
    </linearGradient>
    <filter id="shadow" x="18" y="13" width="60" height="70" filterUnits="userSpaceOnUse">
      <feDropShadow dx="0" dy="4" stdDeviation="4" flood-color="#12052C" flood-opacity="0.35" />
    </filter>
  </defs>

  <rect width="96" height="96" rx="24" fill="url(#background)" />
  <circle cx="48" cy="48" r="35" fill="none" stroke="#C4B5FD" stroke-width="1.5" opacity="0.32" />
  <circle cx="18" cy="53" r="3" fill="#67E8F9" />
  <circle cx="78" cy="53" r="3" fill="#A78BFA" />
  <path d="M20.5 53.5C27 63 35.5 68.5 48 75" fill="none" stroke="#C4B5FD" stroke-width="1.5" stroke-linecap="round" opacity="0.55" />
  <path d="M75.5 53.5C69 63 60.5 68.5 48 75" fill="none" stroke="#C4B5FD" stroke-width="1.5" stroke-linecap="round" opacity="0.55" />

  <g filter="url(#shadow)">
    <path
      d="M48 18C34.745 18 24 28.745 24 42C24 58.5 40.3 71.8 46.1 76.05C47.22 76.87 48.78 76.87 49.9 76.05C55.7 71.8 72 58.5 72 42C72 28.745 61.255 18 48 18Z"
      fill="url(#pin)"
    />
    <circle cx="48" cy="42" r="13" fill="#6D28D9" />
    <path
      d="M48 31.5C49.15 37.15 52.85 40.85 58.5 42C52.85 43.15 49.15 46.85 48 52.5C46.85 46.85 43.15 43.15 37.5 42C43.15 40.85 46.85 37.15 48 31.5Z"
      fill="#FFFFFF"
    />
    <circle cx="48" cy="42" r="3.25" fill="#67E8F9" />
  </g>
</svg>
